<svg id="account-gains" xmlns="http://www.w3.org/2000/svg" xmlns:xlink="http://www.w3.org/1999/xlink" width="124.153" height="103.6" viewBox="0 0 124.153 103.6">
  <defs>
    <linearGradient id="linear-gradient" x1="-0.116" y1="0.35" x2="0.696" y2="1.372" gradientUnits="objectBoundingBox">
      <stop offset="0" stop-color="#9679bc"/>
      <stop offset="1" stop-color="#eb429f"/>
    </linearGradient>
  </defs>
  <g id="Camada_1" data-name="Camada 1">
    <path id="Path_36" data-name="Path 36" d="M35,28.58a30.562,30.562,0,0,0-6.356-1.96A34.27,34.27,0,0,1,24.3,25.3a5.667,5.667,0,0,1-2.225-1.43,2.913,2.913,0,0,1-.689-2.013,3.019,3.019,0,0,1,1.377-2.7,6.833,6.833,0,0,1,3.814-.953,6.727,6.727,0,0,1,3.708.953,3.6,3.6,0,0,1,1.748,2.384,1.271,1.271,0,0,0,1.271.795H37.49a.9.9,0,0,0,.953-.953,7.045,7.045,0,0,0-1.165-3.337,9.852,9.852,0,0,0-3.125-3.019,12.183,12.183,0,0,0-4.926-1.695V10.2a1.006,1.006,0,0,0-1.059-1.059H25.413a1.059,1.059,0,0,0-.742.265,1.006,1.006,0,0,0-.318.795v3.072a11.6,11.6,0,0,0-6.833,2.913,7.733,7.733,0,0,0-2.489,5.826,7.151,7.151,0,0,0,2.437,5.826A18.75,18.75,0,0,0,25.1,31.123q3.125.847,4.767,1.43A6.621,6.621,0,0,1,32.3,33.93a2.7,2.7,0,0,1,.795,2.013A3.231,3.231,0,0,1,31.5,38.8,8.369,8.369,0,0,1,26.9,39.862a7.892,7.892,0,0,1-4.29-1.006,4.714,4.714,0,0,1-2.066-2.542,2.066,2.066,0,0,0-.53-.636,1.43,1.43,0,0,0-.795,0H15.243a.953.953,0,0,0-.689.265.9.9,0,0,0-.265.636,7.468,7.468,0,0,0,1.271,3.814A9.269,9.269,0,0,0,19,43.411a14.2,14.2,0,0,0,5.3,1.536v3.072a1.006,1.006,0,0,0,.318.795,1.059,1.059,0,0,0,.742.265h2.754a1.006,1.006,0,0,0,1.059-1.059V44.947a13.136,13.136,0,0,0,7.468-2.86,7.839,7.839,0,0,0,2.754-6.25,7.68,7.68,0,0,0-1.112-4.29A8.157,8.157,0,0,0,35,28.58Z" transform="translate(61.401 39.271)" fill="url(#linear-gradient)"/>
    <path id="Path_37" data-name="Path 37" d="M88.3,33.052H74.79V19.439a2.648,2.648,0,0,0-2.648-2.648H68.858V2.648A2.648,2.648,0,0,0,66.209,0H2.648A2.648,2.648,0,0,0,0,2.648V18.909a2.648,2.648,0,0,0,2.648,2.648h3.5V35.7a2.648,2.648,0,0,0,2.648,2.648h2.648V49.366H3.5A2.648,2.648,0,0,0,.847,52.014v48.624A2.648,2.648,0,0,0,3.5,103.287H67.057a2.648,2.648,0,0,0,2.648-2.648v-2.7A35.276,35.276,0,1,0,88.3,33.052ZM5.3,5.3H63.561V16.261H5.3Zm6.144,16.791H69.705V33.052H11.441Zm5.3,16.261H69.705A35.488,35.488,0,0,0,58.582,49.313H16.738ZM53.815,81.888H6.144V70.924H52.968a35.011,35.011,0,0,0,2.6,10.964ZM6.144,54.61H55.775a35.012,35.012,0,0,0-2.648,10.964H6.144ZM64.409,98.149H6.144V87.185H58.529A35.328,35.328,0,0,0,64.2,94.017Zm24.1,0a29.874,29.874,0,0,1-25.9-44.811,2.6,2.6,0,0,0,.265-.477A29.874,29.874,0,1,1,88.509,98.149Z" fill="url(#linear-gradient)"/>
  </g>
</svg>
