<svg xmlns="http://www.w3.org/2000/svg" xmlns:xlink="http://www.w3.org/1999/xlink" width="107.456" height="107.456" viewBox="0 0 107.456 107.456">
  <defs>
    <linearGradient id="linear-gradient" x1="0.157" y1="0.068" x2="0.834" y2="1" gradientUnits="objectBoundingBox">
      <stop offset="0" stop-color="#9679bc"/>
      <stop offset="1" stop-color="#eb429f"/>
    </linearGradient>
  </defs>
  <path id="account-rewards" d="M55.674,2a53.728,53.728,0,1,0,53.782,53.728A53.7,53.7,0,0,0,55.674,2ZM95.862,40.469l-26.918-2.31L58.2,12.853A43.127,43.127,0,0,1,95.862,40.469ZM68.622,74.1,55.728,66.366,42.887,74.1l3.385-14.614L34.935,49.657l14.936-1.289,5.856-13.808,5.856,13.754L76.52,49.6,65.184,59.435ZM53.256,12.853,42.511,38.213l-26.971,2.31a43.021,43.021,0,0,1,37.717-27.67ZM12.746,55.728a41.06,41.06,0,0,1,1.236-9.993L34.344,63.357,28.38,88.878A42.885,42.885,0,0,1,12.746,55.728ZM33.377,92.37,55.728,78.884,78.079,92.316a42.415,42.415,0,0,1-44.7.054Zm49.7-3.492L77.111,63.357,97.474,45.734a43.5,43.5,0,0,1,1.236,9.993A43.057,43.057,0,0,1,83.075,88.878Z" transform="translate(-2 -2)" fill="url(#linear-gradient)"/>
</svg>
