<svg xmlns="http://www.w3.org/2000/svg" xmlns:xlink="http://www.w3.org/1999/xlink" width="65.61" height="62.72" viewBox="0 0 65.61 62.72">
  <defs>
    <linearGradient id="linear-gradient" x1="0.157" y1="0.068" x2="0.834" y2="1" gradientUnits="objectBoundingBox">
      <stop offset="0" stop-color="#9679bc"/>
      <stop offset="1" stop-color="#eb429f"/>
    </linearGradient>
  </defs>
  <path id="dashboard-rewards" d="M34.772,2C16.664,2,2,16.049,2,33.36S16.664,64.72,34.772,64.72c18.141,0,32.838-14.049,32.838-31.36S52.913,2,34.772,2ZM59.31,24.454,42.875,23.105,36.314,8.335A26.242,26.242,0,0,1,59.31,24.454ZM42.678,44.085,34.8,39.569l-7.84,4.516,2.067-8.53-6.922-5.739,9.12-.753L34.8,21l3.576,8.028,9.12.753-6.922,5.739,2.1,8.561ZM33.3,8.335l-6.561,14.8L10.267,24.485A26.177,26.177,0,0,1,33.3,8.335ZM8.561,33.36a22.968,22.968,0,0,1,.755-5.833L21.749,37.813l-3.641,14.9A24.62,24.62,0,0,1,8.561,33.36Zm12.6,21.388L34.8,46.876l13.647,7.84a26.916,26.916,0,0,1-27.294.031ZM51.5,52.709l-3.641-14.9L60.294,27.527a24.332,24.332,0,0,1,.755,5.833A24.718,24.718,0,0,1,51.5,52.709Z" transform="translate(-2 -2)" fill="url(#linear-gradient)"/>
</svg>
