<svg width="40" height="40" viewBox="0 0 40 40" fill="none" xmlns="http://www.w3.org/2000/svg">
<path d="M20 36.6668C10.795 36.6668 3.33333 29.2052 3.33333 20.0002C3.33333 10.7952 10.795 3.3335 20 3.3335C29.205 3.3335 36.6667 10.7952 36.6667 20.0002C36.6667 29.2052 29.205 36.6668 20 36.6668ZM20 33.3335C23.5362 33.3335 26.9276 31.9287 29.4281 29.4283C31.9286 26.9278 33.3333 23.5364 33.3333 20.0002C33.3333 16.4639 31.9286 13.0726 29.4281 10.5721C26.9276 8.07159 23.5362 6.66683 20 6.66683C16.4638 6.66683 13.0724 8.07159 10.5719 10.5721C8.07142 13.0726 6.66666 16.4639 6.66666 20.0002C6.66666 23.5364 8.07142 26.9278 10.5719 29.4283C13.0724 31.9287 16.4638 33.3335 20 33.3335V33.3335ZM18.3383 26.6668L11.2667 19.5952L13.6233 17.2385L18.3383 21.9535L27.765 12.5252L30.1233 14.8818L18.3383 26.6668Z" fill="#228131"/>
</svg>
